<svg id="Layer_1" data-name="Layer 1" xmlns="http://www.w3.org/2000/svg" viewBox="0 0 496 496"><defs><style>.cls-1{fill:#e7e7e7;}.cls-2{fill:#aaaaa9;}.cls-3{fill:#fff;}.cls-4{fill:#e9f4f2;}</style></defs><path class="cls-1" d="M496,252.8c0,88-71.2,155.2-158.4,155.2H158.4C71.2,408,0,340.8,0,252.8v-9.6C0,155.2,71.2,88,158.4,88H336.8c88,0,158.4,67.2,158.4,155.2v9.6Z"/><path class="cls-2" d="M.4,256V243.2C.4,155.2,71.6,88,158.8,88H337.2c88,0,158.4,67.2,158.4,155.2V256"/><path class="cls-2" d="M368.4,252.8v-9.6C368.4,155.2,297.2,88,210,88H159.6C71.6,88,.4,155.2.4,243.2v9.6C.4,340.8,71.6,408,158.8,408h50.4C297.2,408,368.4,340.8,368.4,252.8Z"/><circle class="cls-3" cx="162.4" cy="248" r="142.4"/><path class="cls-4" d="M62.4,147.2C117.6,92,208,92,263.2,147.2s55.2,145.6,0,200.8"/></svg>