<svg id="Layer_1" data-name="Layer 1" xmlns="http://www.w3.org/2000/svg" viewBox="0 0 496 496"><defs><style>.cls-1{fill:#bbd689;}.cls-2{fill:#92a86f;}.cls-3{fill:#fff;}.cls-4{fill:#e9f4f2;}</style></defs><path class="cls-1" d="M496,252.8c0,88-71.2,155.2-158.4,155.2H158.4C71.2,408,0,340.8,0,252.8v-9.6C0,155.2,71.2,88,158.4,88H336.8c88,0,158.4,67.2,158.4,155.2v9.6Z"/><path class="cls-2" d="M0,256V243.2C0,155.2,70.4,88,158.4,88H336.8c87.2,0,158.4,67.2,158.4,155.2V256"/><path class="cls-2" d="M286.4,408h50.4c87.2,0,158.4-67.2,158.4-155.2v-9.6C495.2,155.2,424,88,336,88H285.6c-87.2,0-158.4,67.2-158.4,155.2v9.6C127.2,340.8,198.4,408,286.4,408Z"/><circle class="cls-3" cx="325.9" cy="248" r="142.4"/><path class="cls-4" d="M226.1,147.2c55.2-55.2,145.6-55.2,200.8,0s55.2,145.6,0,200.8"/></svg>