<svg id="Layer_1" data-name="Layer 1" xmlns="http://www.w3.org/2000/svg" viewBox="0 0 447.8 447.8"><path d="M320.1,16C196.45,16,96.2,116.25,96.2,239.9S196.45,463.8,320.1,463.8,544,363.55,544,239.9,443.75,16,320.1,16Zm0,410.48a186.23,186.23,0,0,1-144.58-68.85c4.83-11,14.61-18.56,34.83-23.24,41.87-9.67,83.2-18.31,63.31-54.95-58.87-108.59-16.78-170.15,46.44-170.15,62,0,105.12,59.28,46.44,170.15-19.31,36.42,20.52,45.08,63.31,54.95,20.19,4.66,30,12.22,34.91,23.15A186.24,186.24,0,0,1,320.1,426.48Z" transform="translate(-96.2 -16)"/></svg>